HIERARCHY
ROOT Hips
{
	OFFSET 0.000000 83.214638 0.000000
	CHANNELS 6 Xposition Yposition Zposition Xrotation Yrotation Zrotation
	JOINT Pelvis
	{
		OFFSET 0.000000 0.000000 0.000000
		CHANNELS 3 Xrotation Yrotation Zrotation
		JOINT LeftUpLeg
		{
			OFFSET 8.479700 -4.795502 -0.379100
			CHANNELS 3 Xrotation Yrotation Zrotation
			JOINT LeftLeg
			{
				OFFSET 0.024144 -32.555107 0.112900
				CHANNELS 3 Xrotation Yrotation Zrotation
				JOINT LeftFoot
				{
					OFFSET -0.024144 -32.638630 -3.012600
					CHANNELS 3 Xrotation Yrotation Zrotation
					JOINT LeftToeBase
					{
						OFFSET 0.970200 -13.225400 11.864200
						CHANNELS 3 Xrotation Yrotation Zrotation
						End Site
						{
							OFFSET 0.000000 12.319262 0.000000
						}
					}
					JOINT LFootTongue
					{
						OFFSET 1.142400 -1.059800 6.665200
						CHANNELS 3 Xrotation Yrotation Zrotation
						End Site
						{
							OFFSET 0.000000 12.319262 0.000000
						}
					}
				}
				JOINT LeftPantLeg
				{
					OFFSET 0.918482 -16.533964 -2.284700
					CHANNELS 3 Xrotation Yrotation Zrotation
					End Site
					{
						OFFSET 0.350399 24.744368 0.000000
					}
				}
			}
		}
		JOINT RightUpLeg
		{
			OFFSET -8.479700 -4.795502 -0.379100
			CHANNELS 3 Xrotation Yrotation Zrotation
			JOINT RightLeg
			{
				OFFSET -0.023144 -32.555092 0.112900
				CHANNELS 3 Xrotation Yrotation Zrotation
				JOINT RightFoot
				{
					OFFSET 0.023144 -32.638641 -3.012700
					CHANNELS 3 Xrotation Yrotation Zrotation
					JOINT RightToeBase
					{
						OFFSET -0.970200 -13.225400 11.864200
						CHANNELS 3 Xrotation Yrotation Zrotation
						End Site
						{
							OFFSET 0.000000 12.319244 0.000000
						}
					}
					JOINT RFootTongue
					{
						OFFSET -1.142200 -1.059800 6.665200
						CHANNELS 3 Xrotation Yrotation Zrotation
						End Site
						{
							OFFSET 0.000000 12.319243 0.000000
						}
					}
				}
				JOINT RightPantLeg
				{
					OFFSET -0.919482 -16.533978 -2.284800
					CHANNELS 3 Xrotation Yrotation Zrotation
					End Site
					{
						OFFSET -0.350400 24.744419 0.000000
					}
				}
			}
		}
	}
	JOINT Spine
	{
		OFFSET 0.000000 7.722000 1.166200
		CHANNELS 3 Xrotation Yrotation Zrotation
		JOINT Spine1
		{
			OFFSET 0.000000 12.024101 0.248800
			CHANNELS 3 Xrotation Yrotation Zrotation
			JOINT Spine2
			{
				OFFSET 0.000000 11.502998 -0.491200
				CHANNELS 3 Xrotation Yrotation Zrotation
				JOINT Neck
				{
					OFFSET 0.000000 18.430702 -3.123100
					CHANNELS 3 Xrotation Yrotation Zrotation
					JOINT Head
					{
						OFFSET 0.000000 9.051102 1.034000
						CHANNELS 3 Xrotation Yrotation Zrotation
						JOINT HairB
						{
							OFFSET 0.208400 24.786102 24.822300
							CHANNELS 3 Xrotation Yrotation Zrotation
							End Site
							{
								OFFSET 0.000000 32.263779 0.000000
							}
						}
						JOINT HairA
						{
							OFFSET -7.081100 24.428299 23.196600
							CHANNELS 3 Xrotation Yrotation Zrotation
							End Site
							{
								OFFSET 0.000000 32.263779 0.000000
							}
						}
						JOINT Hat
						{
							OFFSET 16.728800 15.048294 -15.439601
							CHANNELS 3 Xrotation Yrotation Zrotation
							End Site
							{
								OFFSET 0.000000 32.263779 0.000000
							}
						}
					}
				}
				JOINT LeftShoulder
				{
					OFFSET 6.197800 13.665199 -4.064700
					CHANNELS 3 Xrotation Yrotation Zrotation
					JOINT LeftArm
					{
						OFFSET 7.778100 -0.187103 -1.709300
						CHANNELS 3 Xrotation Yrotation Zrotation
						JOINT LeftForeArm
						{
							OFFSET 22.049376 0.000000 0.000000
							CHANNELS 3 Xrotation Yrotation Zrotation
							JOINT LeftHand
							{
								OFFSET 23.009392 0.000000 0.000000
								CHANNELS 3 Xrotation Yrotation Zrotation
								JOINT LeftHandThumb1
								{
									OFFSET 3.507191 -2.063065 3.133727
									CHANNELS 3 Xrotation Yrotation Zrotation
									JOINT LeftHandThumb2
									{
										OFFSET 3.101337 -1.790558 1.790558
										CHANNELS 3 Xrotation Yrotation Zrotation
										JOINT LeftHandThumb3
										{
											OFFSET 3.058640 -1.765907 1.765906
											CHANNELS 3 Xrotation Yrotation Zrotation
											End Site
											{
												OFFSET -0.415260 3.926476 -0.049563
											}
										}
									}
								}
								JOINT LeftHandIndex1
								{
									OFFSET 11.334419 -0.901459 3.706815
									CHANNELS 3 Xrotation Yrotation Zrotation
									JOINT LeftHandIndex2
									{
										OFFSET 3.283112 0.000000 0.000000
										CHANNELS 3 Xrotation Yrotation Zrotation
										JOINT LeftHandIndex3
										{
											OFFSET 3.323853 0.000000 0.000000
											CHANNELS 3 Xrotation Yrotation Zrotation
											End Site
											{
												OFFSET -1.135597 3.097809 0.402452
											}
										}
									}
								}
								JOINT LeftHandMiddle1
								{
									OFFSET 11.335861 0.000000 0.000000
									CHANNELS 3 Xrotation Yrotation Zrotation
									JOINT LeftHandMiddle2
									{
										OFFSET 3.410492 0.000000 0.000000
										CHANNELS 3 Xrotation Yrotation Zrotation
										JOINT LeftHandMiddle3
										{
											OFFSET 3.312172 0.000000 0.000000
											CHANNELS 3 Xrotation Yrotation Zrotation
											End Site
											{
												OFFSET -1.150200 3.080154 0.400270
											}
										}
									}
								}
								JOINT LeftHandRing1
								{
									OFFSET 11.514786 -0.013176 -3.003090
									CHANNELS 3 Xrotation Yrotation Zrotation
									JOINT LeftHandRing2
									{
										OFFSET 3.053307 0.000000 0.000000
										CHANNELS 3 Xrotation Yrotation Zrotation
										JOINT LeftHandRing3
										{
											OFFSET 3.295807 0.000000 0.000000
											CHANNELS 3 Xrotation Yrotation Zrotation
											End Site
											{
												OFFSET -1.281006 3.013344 0.375733
											}
										}
									}
								}
								JOINT LeftHandPinky1
								{
									OFFSET 10.518692 -0.960396 -5.730441
									CHANNELS 3 Xrotation Yrotation Zrotation
									JOINT LeftHandPinky2
									{
										OFFSET 2.861649 0.000000 0.000000
										CHANNELS 3 Xrotation Yrotation Zrotation
										JOINT LeftHandPinky3
										{
											OFFSET 2.863380 0.000000 0.000000
											CHANNELS 3 Xrotation Yrotation Zrotation
											End Site
											{
												OFFSET -0.843597 2.711159 0.369971
											}
										}
									}
								}
							}
							JOINT LSleeve
							{
								OFFSET 6.676277 -0.344902 -1.011730
								CHANNELS 3 Xrotation Yrotation Zrotation
								End Site
								{
									OFFSET 0.000000 14.885353 0.000000
								}
							}
						}
					}
				}
				JOINT RightShoulder
				{
					OFFSET -6.197800 13.665199 -4.064700
					CHANNELS 3 Xrotation Yrotation Zrotation
					JOINT RightArm
					{
						OFFSET -7.778100 -0.187103 -1.709300
						CHANNELS 3 Xrotation Yrotation Zrotation
						JOINT RightForeArm
						{
							OFFSET -22.049376 0.000000 0.000000
							CHANNELS 3 Xrotation Yrotation Zrotation
							JOINT RightHand
							{
								OFFSET -23.009392 0.000000 0.000000
								CHANNELS 3 Xrotation Yrotation Zrotation
								JOINT RightHandThumb1
								{
									OFFSET -3.507191 -2.063065 3.133727
									CHANNELS 3 Xrotation Yrotation Zrotation
									JOINT RightHandThumb2
									{
										OFFSET -3.101337 -1.790558 1.790558
										CHANNELS 3 Xrotation Yrotation Zrotation
										JOINT RightHandThumb3
										{
											OFFSET -3.058640 -1.765907 1.765906
											CHANNELS 3 Xrotation Yrotation Zrotation
											End Site
											{
												OFFSET 0.415260 3.926476 -0.049563
											}
										}
									}
								}
								JOINT RightHandIndex1
								{
									OFFSET -11.334419 -0.901459 3.706815
									CHANNELS 3 Xrotation Yrotation Zrotation
									JOINT RightHandIndex2
									{
										OFFSET -3.283112 0.000000 0.000000
										CHANNELS 3 Xrotation Yrotation Zrotation
										JOINT RightHandIndex3
										{
											OFFSET -3.323853 0.000000 0.000000
											CHANNELS 3 Xrotation Yrotation Zrotation
											End Site
											{
												OFFSET 1.135597 3.097809 0.402452
											}
										}
									}
								}
								JOINT RightHandMiddle1
								{
									OFFSET -11.335861 0.000000 0.000000
									CHANNELS 3 Xrotation Yrotation Zrotation
									JOINT RightHandMiddle2
									{
										OFFSET -3.410492 0.000000 0.000000
										CHANNELS 3 Xrotation Yrotation Zrotation
										JOINT RightHandMiddle3
										{
											OFFSET -3.312172 0.000000 0.000000
											CHANNELS 3 Xrotation Yrotation Zrotation
											End Site
											{
												OFFSET 1.150200 3.080154 0.400270
											}
										}
									}
								}
								JOINT RightHandRing1
								{
									OFFSET -11.514786 -0.013176 -3.003090
									CHANNELS 3 Xrotation Yrotation Zrotation
									JOINT RightHandRing2
									{
										OFFSET -3.053307 0.000000 0.000000
										CHANNELS 3 Xrotation Yrotation Zrotation
										JOINT RightHandRing3
										{
											OFFSET -3.295807 0.000000 0.000000
											CHANNELS 3 Xrotation Yrotation Zrotation
											End Site
											{
												OFFSET 1.281006 3.013344 0.375733
											}
										}
									}
								}
								JOINT RightHandPinky1
								{
									OFFSET -10.518692 -0.960396 -5.730441
									CHANNELS 3 Xrotation Yrotation Zrotation
									JOINT RightHandPinky2
									{
										OFFSET -2.861649 0.000000 0.000000
										CHANNELS 3 Xrotation Yrotation Zrotation
										JOINT RightHandPinky3
										{
											OFFSET -2.863380 0.000000 0.000000
											CHANNELS 3 Xrotation Yrotation Zrotation
											End Site
											{
												OFFSET 0.843597 2.711159 0.369971
											}
										}
									}
								}
							}
							JOINT RSleeve
							{
								OFFSET -6.676277 -0.344902 -1.011730
								CHANNELS 3 Xrotation Yrotation Zrotation
								End Site
								{
									OFFSET 0.000000 14.885353 0.000000
								}
							}
						}
					}
				}
				JOINT Backpack
				{
					OFFSET 0.000000 -2.471497 36.677502
					CHANNELS 3 Xrotation Yrotation Zrotation
					End Site
					{
						OFFSET 0.000000 20.427315 0.000000
					}
				}
				JOINT Hood
				{
					OFFSET 0.000000 18.754097 -10.431000
					CHANNELS 3 Xrotation Yrotation Zrotation
					JOINT Hood1
					{
						OFFSET 0.000000 -5.011002 -7.685901
						CHANNELS 3 Xrotation Yrotation Zrotation
						End Site
						{
							OFFSET 0.000000 9.175140 0.000000
						}
					}
				}
				JOINT LHoodieString
				{
					OFFSET 5.250500 16.397697 3.089900
					CHANNELS 3 Xrotation Yrotation Zrotation
					JOINT LHoodieString1
					{
						OFFSET 0.257700 -6.364304 3.694600
						CHANNELS 3 Xrotation Yrotation Zrotation
						JOINT LHoodieString2
						{
							OFFSET 0.000000 -9.643799 2.679100
							CHANNELS 3 Xrotation Yrotation Zrotation
							End Site
							{
								OFFSET 0.000000 10.009018 0.000000
							}
						}
					}
				}
				JOINT RHoodieString
				{
					OFFSET -5.250500 16.397697 3.089900
					CHANNELS 3 Xrotation Yrotation Zrotation
					JOINT RHoodieString1
					{
						OFFSET -0.257700 -6.364304 3.694600
						CHANNELS 3 Xrotation Yrotation Zrotation
						JOINT RHoodieString2
						{
							OFFSET 0.000000 -9.643799 2.679100
							CHANNELS 3 Xrotation Yrotation Zrotation
							End Site
							{
								OFFSET 0.000000 10.009018 0.000000
							}
						}
					}
				}
			}
			JOINT LBackpack_Strap
			{
				OFFSET 15.223200 -7.719803 -6.610900
				CHANNELS 3 Xrotation Yrotation Zrotation
				End Site
				{
					OFFSET 0.000000 16.040596 0.000000
				}
			}
			JOINT RBackpack_Strap
			{
				OFFSET -15.223000 -7.719803 -6.610900
				CHANNELS 3 Xrotation Yrotation Zrotation
				End Site
				{
					OFFSET 0.000000 16.040596 0.000000
				}
			}
		}
	}
	JOINT BoyFacialAnim_Joint
	{
		OFFSET 1.000000 -82.208099 -1.550900
		CHANNELS 3 Xrotation Yrotation Zrotation
		End Site
		{
			OFFSET 0.000000 30.012791 0.000000
		}
	}
}
MOTION
Frames: 4
Frame Time: 0.033333
-0.281360 79.685753 0.453721 -2.356052 4.055409 -0.783820 -0.000000 -0.000000 0.000000 -28.044091 2.284259 9.304593 60.087080 -0.869896 -2.149179 4.783908 -4.531034 -6.890889 -0.000000 0.000000 -0.000001 -0.000000 0.000000 -0.000000 -0.000001 0.000000 -0.000000 -12.183385 -10.102686 2.896213 30.518054 -0.008186 1.105470 -15.956874 0.742315 -5.451856 -0.000000 -0.000000 0.000000 -0.000000 -0.000000 0.000000 -0.000001 -0.000000 0.000001 2.199553 0.823634 1.191808 4.414068 1.736376 0.900966 4.414072 1.736379 0.900966 -12.008366 -1.070952 -0.659054 5.516785 -5.994529 -0.783677 -0.000000 0.000000 0.000000 -0.000000 0.000000 0.000000 -0.000000 0.000000 0.000000 2.823425 -4.461407 -7.548178 4.802020 -24.601242 -65.882543 -3.432521 -14.574562 0.068379 -14.687198 -2.371335 2.167587 -3.585677 6.501877 9.429892 2.607174 6.629795 1.555724 0.000000 0.000000 0.000001 0.070621 -0.510167 -26.039645 0.110277 0.884538 -24.537721 0.000000 -0.000001 -0.000000 -0.501641 -0.459702 -26.332739 -0.503827 -1.583822 -26.481666 0.000002 -0.000003 -0.000004 -5.882441 1.314702 -27.101361 -2.267794 -4.647477 -57.723131 -0.000001 -0.000000 -0.000006 -3.650166 3.003748 -33.513242 -4.092364 -8.987251 -66.994628 0.000000 0.000001 0.000002 -0.000000 -0.000001 -0.000000 4.940404 1.143358 5.560279 3.182083 16.666642 67.033888 -1.106597 18.286851 -0.001657 -13.182571 -3.058311 -6.668388 -5.481719 -3.709466 -3.794179 2.717109 -7.521269 -2.198765 -0.000000 -0.000001 -0.000001 -0.892140 -2.285925 28.725522 0.247800 -1.398548 24.976375 -0.000003 0.000001 0.000000 -1.629265 -0.780851 41.688579 -15.552839 -3.314173 12.059825 0.000002 0.000001 -0.000002 -1.787035 -1.240785 45.650870 -0.169566 1.991307 14.110808 -0.000000 -0.000001 0.000002 -2.311476 -3.034028 51.749884 -2.910767 8.058673 31.383060 -0.000001 -0.000001 0.000004 0.000000 0.000000 -0.000001 0.000001 0.000000 -0.000000 0.000001 0.000000 -0.000000 0.000001 0.000000 -0.000000 0.000001 0.000000 -0.000000 0.000001 0.000000 -0.000000 -0.000000 -0.000001 0.000000 0.000001 0.000000 -0.000000 0.000001 0.000000 -0.000000 -0.000000 -0.000001 0.000000 0.000000 0.000000 0.000000 0.000000 0.000000 0.000000 -0.000000 -0.000000 0.000000 
-0.281670 80.254509 2.596898 -2.280972 3.044379 -0.019050 0.000000 -0.000000 -0.000000 -28.488832 3.064508 8.057677 52.410377 -0.900423 -1.917154 2.014790 -1.260327 -8.340685 -0.000000 0.000000 -0.000000 -0.000000 0.000000 -0.000000 0.000001 0.000000 0.000000 -8.682366 -10.072081 2.375577 27.075237 -0.216742 0.979494 -16.082474 2.145051 -4.983880 0.000000 -0.000000 0.000000 0.000000 -0.000000 0.000000 0.000000 -0.000000 0.000001 2.177479 1.123055 0.868638 4.370498 2.263921 0.629384 4.370498 2.263918 0.629384 -11.781897 -1.081486 -0.866047 5.801616 -6.506856 -0.966147 -0.000000 0.000000 0.000000 -0.000000 0.000000 0.000000 -0.000000 0.000000 0.000000 2.882872 -3.856254 -7.272800 6.685171 -24.131509 -65.698681 -3.445732 -14.493714 0.067311 -16.759496 -4.208532 2.065097 -3.651039 6.376737 9.445737 2.607172 6.629795 1.555729 0.000000 -0.000001 -0.000002 0.071500 -0.508545 -26.150884 0.111205 0.886140 -24.648983 0.000000 -0.000001 -0.000002 -0.505657 -0.467857 -26.443595 -0.507886 -1.591936 -26.592616 0.000000 0.000002 0.000002 -5.886727 1.306320 -27.212114 -2.275798 -4.652503 -57.834606 -0.000001 0.000002 -0.000003 -3.657289 2.993058 -33.623321 -4.104445 -8.992198 -67.107053 -0.000001 0.000001 -0.000000 0.000001 -0.000000 0.000000 4.831783 1.888480 5.687231 3.675562 17.627009 65.307325 -1.108465 21.468051 -0.000009 -15.473614 -4.716585 -8.162730 -5.481718 -3.709465 -3.794181 2.717108 -7.521268 -2.198766 -0.000001 0.000001 0.000001 -0.893431 -2.283664 28.656701 0.246601 -1.396229 24.907593 -0.000001 0.000001 0.000005 -1.626430 -0.784038 41.619829 -15.538120 -3.297956 11.993214 0.000000 0.000001 0.000002 -1.782241 -1.245495 45.590150 -0.167968 1.984983 14.050368 -0.000001 -0.000001 0.000000 -2.304202 -3.039740 51.696681 -2.905841 8.050765 31.328695 0.000000 -0.000000 0.000004 -0.000001 0.000000 -0.000001 0.000001 -0.000000 0.000000 0.000001 -0.000000 0.000000 0.000001 -0.000000 0.000000 0.000001 -0.000000 0.000000 0.000001 -0.000000 -0.000000 -0.000000 -0.000000 0.000000 0.000001 -0.000000 0.000000 0.000001 -0.000000 -0.000000 -0.000000 -0.000000 0.000000 0.000001 0.000000 0.000000 0.000001 0.000000 0.000000 0.000000 -0.000000 -0.000000 
-0.227936 80.631638 4.677755 -1.835266 2.424454 0.309760 -0.000000 -0.000000 -0.000000 -28.626662 3.316065 6.899738 43.157985 -1.041581 -1.621691 -0.065097 2.498737 -8.741544 -0.000000 -0.000001 -0.000000 -0.000000 -0.000001 -0.000000 0.000001 0.000000 0.000000 -5.603178 -10.200262 2.234634 23.692205 -0.494625 0.850693 -16.193205 3.266697 -4.441743 -0.000000 0.000000 0.000000 -0.000000 0.000000 0.000000 -0.000001 -0.000000 -0.000000 2.133840 1.308053 0.632518 4.278726 2.590798 0.519403 4.278723 2.590797 0.519403 -11.781703 -1.112180 -1.050203 5.951554 -6.846742 -1.128664 0.000000 -0.000000 -0.000000 0.000000 -0.000000 -0.000000 0.000000 -0.000000 -0.000000 2.920604 -3.407617 -7.140639 8.686242 -23.920929 -65.676183 -3.459890 -14.861662 0.065676 -18.236935 -5.297615 2.028244 -3.718609 6.272841 9.300824 2.607172 6.629795 1.555733 -0.000000 0.000000 -0.000001 0.073228 -0.505334 -26.372988 0.113060 0.889322 -24.871099 -0.000001 0.000001 -0.000003 -0.513793 -0.484098 -26.664978 -0.516021 -1.608116 -26.814059 -0.000000 -0.000001 0.000000 -5.895375 1.289615 -27.433303 -2.291813 -4.662506 -58.057107 -0.000000 -0.000001 -0.000002 -3.671600 2.971756 -33.843188 -4.128581 -9.001999 -67.331411 0.000002 0.000002 0.000000 -0.000001 0.000000 0.000001 4.714141 2.684449 5.796175 3.715687 18.461648 63.484286 -1.106797 23.867799 0.001217 -17.050133 -6.146165 -8.785546 -5.481717 -3.709465 -3.794183 2.717109 -7.521268 -2.198762 0.000000 0.000001 -0.000003 -0.894825 -2.281179 28.581435 0.245288 -1.393694 24.832326 -0.000001 0.000001 0.000000 -1.623329 -0.787536 41.544643 -15.521987 -3.280241 11.920332 0.000001 0.000001 -0.000002 -1.777019 -1.250605 45.524235 -0.166260 1.978109 13.984712 -0.000000 0.000002 0.000001 -2.296351 -3.045925 51.639314 -2.900528 8.042225 31.270044 -0.000001 -0.000001 0.000000 0.000002 -0.000000 0.000000 0.000000 0.000000 -0.000000 0.000000 0.000000 -0.000000 0.000000 0.000000 -0.000000 0.000000 0.000000 -0.000000 0.000000 0.000000 -0.000000 0.000000 -0.000000 0.000000 0.000000 0.000000 -0.000000 0.000000 0.000000 -0.000000 0.000000 -0.000000 0.000000 0.000000 0.000000 0.000000 0.000000 0.000000 0.000000 -0.000000 -0.000000 -0.000000 
-0.179956 80.786728 6.691153 -1.327324 1.576705 0.643100 -0.000000 -0.000000 -0.000000 -28.176064 3.263616 5.638017 32.692407 -0.718153 -1.241251 -1.348716 5.086321 -8.014320 -0.000000 0.000001 -0.000000 -0.000000 0.000001 -0.000000 -0.000000 0.000001 -0.000000 -3.169412 -10.316792 1.949947 21.264290 -0.331560 0.773809 -16.685314 4.149888 -3.999629 -0.000000 -0.000000 -0.000000 -0.000000 -0.000000 -0.000000 0.000002 0.000000 0.000001 2.072585 1.529060 0.384388 4.151151 3.022826 0.362599 4.151151 3.022826 0.362599 -11.901425 -1.156053 -1.231931 5.760720 -7.028426 -1.174001 -0.000000 -0.000000 -0.000000 -0.000000 -0.000000 -0.000000 -0.000000 -0.000000 -0.000000 2.940009 -3.088001 -7.159981 11.110114 -23.609469 -65.659742 -3.469983 -15.511686 0.066267 -19.017408 -5.997691 2.011053 -3.871388 6.031621 9.039991 2.607173 6.629795 1.555727 -0.000001 0.000001 0.000001 0.074541 -0.502874 -26.541582 0.114486 0.891723 -25.039765 -0.000003 0.000002 -0.000002 -0.519997 -0.496396 -26.833008 -0.522234 -1.620384 -26.982220 -0.000001 0.000000 -0.000001 -5.901977 1.276945 -27.601206 -2.304008 -4.670035 -58.226038 0.000001 -0.000000 0.000001 -3.682512 2.955638 -34.010124 -4.146926 -9.009372 -67.501790 -0.000000 0.000001 -0.000002 0.000000 -0.000001 -0.000001 4.603997 3.436564 5.716600 3.503428 18.751992 61.794190 -1.097825 26.137136 0.001850 -17.629482 -7.348162 -8.460843 -5.481714 -3.709467 -3.794179 2.717111 -7.521265 -2.198762 -0.000001 0.000001 0.000000 -0.896316 -2.278539 28.501118 0.243888 -1.390982 24.752030 -0.000004 0.000000 0.000004 -1.620020 -0.791281 41.464408 -15.504736 -3.261381 11.842580 -0.000000 0.000000 0.000003 -1.771513 -1.256021 45.454520 -0.164434 1.970777 13.914836 0.000001 0.000001 0.000001 -2.288041 -3.052480 51.578450 -2.894931 8.033158 31.207845 -0.000001 -0.000001 0.000004 0.000004 0.000002 -0.000002 -0.000000 -0.000001 -0.000000 -0.000000 -0.000001 -0.000000 -0.000000 -0.000001 -0.000000 -0.000000 -0.000001 -0.000000 -0.000000 -0.000001 -0.000000 -0.000000 -0.000000 0.000000 -0.000000 -0.000001 -0.000000 -0.000000 -0.000001 -0.000000 -0.000000 -0.000000 0.000000 0.000000 0.000000 -0.000000 0.000000 0.000000 -0.000000 -0.000000 -0.000000 -0.000000 
